<?xml version="1.0" encoding="UTF-8"?>
<svg width="1200pt" height="1200pt" version="1.1" viewBox="0 0 1200 1200" xmlns="http://www.w3.org/2000/svg">
 <g fill-rule="evenodd">
  <path d="m860.18 256.52v-17.281c-42.973-4.4023-76.68 3.3242-100.8-11.52-1.7148 17.82-29.867-9.2656-25.922 2.8789 3.3828 0.45703 8.1836-0.49219 8.6406 2.8789-10.871 1.9453-15.48 3.5273-17.27-8.6406h-11.52c-2.8438 18.926-20.617-6.5898-25.922 11.52 4.9805-18.949-18.348 1.3672-14.398-11.52h-11.52c-12.109 12.625-38.363-6.5391-51.84 14.398v-11.52c-106.31 7.1172-201-0.48047-276.48 8.6406-2.8086 11.41-1.0195 20.375 5.7617 28.801 159.58-8.2031 307.77-7.8672 521.27-8.6367z"/>
  <path d="m1128 270.93c-13.609-56.797-163.99-25.992-218.88-31.68-19.895 36.324-35.965 90.371-55.211 120 0.35938 0.68359 0.58984 1.8828 0.49219 3.8398-15.047 28.129-16.512 42.023-34.559 72-2.2305-7.3555 11.27-13.246 2.8789-17.281-2.207 6.793-4.5586 21.023-11.52 14.398-3.0352 10.715 9.707 5.6523 11.52 11.52-22.32-0.49219-41.762-19.391-72-8.6406 13.691 0.99609-24.277 10.906-28.801 2.8789 4.3086-0.49219 10.633 1.0195 11.52-2.8789-21.516 0.58984-52.945-1.8828-74.879 8.6406-4.2734-16.789-34.477-9.7812-51.84-5.7461 0.035156-3.8047 5.0508-2.6406 5.7617-5.7617-83.652 8.3984-159.2-6.1797-236.16 11.52 0.035156-4.7539 7.9922-1.6094 8.6406-5.7461-31.164-62.578-59.062-141.37-95.039-207.36-83.125 11.566-204.65-30.562-227.52 43.199v190.08c11.148 1.2852-4.3906 31.441 5.7617 40.32-0.63672 2.2422-2.4102 3.3477-5.7617 2.8789v43.199c7.3438 12.109 4.1641 33.551 0 48.961v103.68c5.8555 2.7734 6.2266 11.051 5.7617 20.16-2.8906 0.011719-3.4336-2.3281-5.7617-2.8789v17.281c6.0469 19.309 5.1719 42.949 0 63.348v112.32c7.1523 72.516 87.492 54.203 158.4 51.84 82.738-2.7461 170.38-1.6562 239.04-5.7617 163.03-9.7422 347.57 10.379 529.92 2.8789 64.621-2.6641 115.75 13.094 138.24-25.922 0.43359-129.62 0-348.52 0-512.64-0.003906-56.684 8.1914-118.48-0.003906-152.64zm-23.039 665.28c-124.25 13.262-224.12-3.6367-362.88 0-8.4492-2.0508-1.6445 12.684-11.52 2.8789-5.1484 0.80469-5.9023-2.7227-2.8672-2.8789 13.547-4.4023-5.8906-1.0078-11.52 0-26.988-17.699-42.875 0.625-77.762 0 27.938-12.805-3.9258 0.43359-14.398 0-8.0742-0.32422-34.535-8.6641-40.32 2.8789-9.7422 1.1055-4.5234-12.742-17.281-8.6406-96.469 3.3125-181.41-3.5273-267.84 8.6406 0.88672-3.9102 7.2109-2.3867 11.52-2.8789-51.602-15.203-142.92 8.3867-207.36-8.6406-14.566-26.242 5.1484-71.27-8.6406-100.8 4.7773-193.09 2.5312-368.71 0-552.96 49.066-24.406 108.53 1.0781 172.8-11.52 35.977 63.863 57.984 141.7 95.039 204.48 140.1 1.5859 303.06-4.0195 472.32-2.8789 33.312-65.555 60.277-137.47 92.16-204.48 45.109 0.81641 135-5.9297 178.56 5.7617 9.4453 210.45 9.6836 460.62-0.011719 671.04z"/>
  <path d="m851.53 363.09c0.80469-1.1523 1.5859-2.6055 2.3867-3.8398-0.94531-1.8008-2.8555 0.28516-2.3867 3.8398z"/>
  <path d="m756.49 605c-11.797-44.508-75.84-31.668-109.44-34.559 2.1016-4.7031-5.7227-12.527-5.7461-5.7617 7.3086 6.5898-23.699-0.81641-25.922 5.7617-4.5977-2.125 0.66016-14.09-8.6406-11.52-5.4375 0.32422-2.0039 9.5156-8.6406 8.6406 1.3203-13.488-12.91-2.8555-17.281 2.8789v-8.6406c-18.863-7.0078-70.477 12.348-66.238 0-58.285-3.4219-79.586 22.633-77.762 74.879 0.68359 19.5-5.0391 35.016-2.8789 54.73 8.8438 80.723 102.19 51.77 172.8 48.961 47.004-1.8828 126.62 14.867 149.76-25.922-5.9648-42.383 8.1953-78.523-0.011718-109.45zm-17.27 100.79c-7.6094-0.86328-7.4297 6.0117-8.6523 11.52-4.2734-7.1992-38.809 11.09-34.559-5.7461-3.6016 13.402-20.855-3.9727-23.039 8.6406 1.4141-12.816-25.945-13.836-31.68-2.8789-9.8281-11.723-46.367-12.215-60.48 2.8789-4.2734-1.2461 1.1406-3.6836 0-8.6406-35.746 1.5352-63.492 0.10938-100.8 2.8789-23.746-25.824-10.754-73.414-8.6406-112.32 88.859-17.473 161.89-4.8711 250.56-11.52 30.242 13.918 12.602 75.719 17.293 115.19z"/>
  <path d="m275.53 573.32c-8.832 1.1172-23.93 12.758-28.801 5.7617-3.3945 7.6211-2.4961 8.9414-11.52 5.7617-0.64844 5.4492 3.2539 6.3477 2.8789 11.52-5.8555-6.8047-11.762 3.5898-5.7617 8.6406-19.586-5.4492-19.98 30.984-17.281 40.309-0.035156-2.8906-5.0508-3.625-5.7617 0-6.1328 79.715 86.352 125.27 141.12 89.281 17.953-28.836 37.055-43.105 37.441-77.762 0.65234-59.727-57.031-90.496-112.32-83.512zm-5.7578 135.36c0.26562-7.8477-4.7891-5.7969 0-11.52-22.559-19.871-31.668-49.414-14.398-74.879 26.902-39.684 105.6-23.746 112.32 23.039 7.6055 52.945-52.887 101.04-97.922 63.359z"/>
  <path d="m828.49 590.61c1.6094-0.011719 3.2656 2.3281 0 2.8789-0.16797-1.7539-0.43359-3.4062-2.8789-2.8789-2.0156 8.8672-2.0156 5.5312 0 14.398-3.6836-0.15625-3.9844-3.6953-8.6406-2.8789-7.2617 24.574-14.902 36.254-14.398 51.84 3.9609 121.64 177.41 118.89 178.56 2.8672 0.83984-84.383-108.68-99.91-152.64-66.227zm40.32 118.08s-2.9023-4.9062-5.7617-11.52c-4.1992-9.7305-24.492-16.754-23.039-46.078 3.2656-65.723 109.55-65.387 120.96-11.52 11.566 54.562-46.07 106.1-92.16 69.117z"/>
 </g>
</svg>
